<svg xmlns="http://www.w3.org/2000/svg" height="1200" width="1600" version="1.1" xmlns:xlink="http://www.w3.org/1999/xlink" xmlns:svgjs="http://svgjs.com/svgjs"><rect fill="#f3ebe9" width="1600" height="1200"></rect><g><path d="M1175.36 286.73H788.47C767.75 286.73 750.89 303.5 750.89 324.31V572.78C750.89 593.51 767.67 610.37 788.47 610.37H1175.44C1196.17 610.37 1213.03 593.59 1213.03 572.78V324.31C1212.95 303.5 1196.09 286.73 1175.36 286.73Z" fill="#3c2c5b" opacity="1" stroke-width="4" stroke="none"></path><path d="M796.37 345.78C803.86 345.78 809.94 339.7 809.94 332.21 809.94 324.72 803.86 318.64 796.37 318.64 788.87 318.64 782.8 324.72 782.8 332.21 782.8 339.7 788.87 345.78 796.37 345.78Z" fill="#ffffff" opacity="1" stroke-width="4" stroke="none"></path><path d="M836.92 345.78C844.41 345.78 850.49 339.7 850.49 332.21 850.49 324.72 844.41 318.64 836.92 318.64 829.42 318.64 823.35 324.72 823.35 332.21 823.35 339.7 829.42 345.78 836.92 345.78Z" fill="#ffffff" opacity="1" stroke-width="4" stroke="none"></path><path d="M877.46 345.78C884.96 345.78 891.04 339.7 891.04 332.21 891.04 324.72 884.96 318.64 877.46 318.64 869.97 318.64 863.89 324.72 863.89 332.21 863.89 339.7 869.97 345.78 877.46 345.78Z" fill="#ffffff" opacity="1" stroke-width="4" stroke="none"></path></g><g><path d="M1006.83 472.68C1020.29 418.48 1018.81 371.47 1003.51 367.67 988.21 363.87 964.9 404.72 951.43 458.91 937.97 513.11 939.46 560.12 954.75 563.92 970.05 567.72 993.37 526.87 1006.83 472.68Z" stroke="#cecece" stroke-width="4" stroke-linecap="round" stroke-linejoin="round" opacity="1" fill="none"></path><path d="M1051.72 535.86C1062.66 524.51 1038.94 483.89 998.74 445.14 958.54 406.39 917.09 384.17 906.15 395.52 895.21 406.86 918.93 447.48 959.13 486.23 999.33 524.99 1040.79 547.21 1051.72 535.86Z" stroke="#cecece" stroke-width="4" stroke-linecap="round" stroke-linejoin="round" opacity="1" fill="none"></path><path d="M987.01 493.14C1040.67 477.7 1080.64 452.91 1076.28 437.76 1071.92 422.61 1024.89 422.85 971.22 438.29 917.56 453.73 877.59 478.52 881.95 493.67 886.31 508.82 933.34 508.58 987.01 493.14Z" stroke="#cecece" stroke-width="4" stroke-linecap="round" stroke-linejoin="round" opacity="1" fill="none"></path><path d="M979.12 481.62C987.9 481.62 995.01 474.5 995.01 465.72 995.01 456.94 987.9 449.83 979.12 449.83 970.34 449.83 963.22 456.94 963.22 465.72 963.22 474.5 970.34 481.62 979.12 481.62Z" fill="#37b9f6" opacity="1" stroke-width="4" stroke="none"></path><path d="M912.97 437.79C917.53 437.79 921.23 434.1 921.23 429.54 921.23 424.98 917.53 421.29 912.97 421.29 908.42 421.29 904.72 424.98 904.72 429.54 904.72 434.1 908.42 437.79 912.97 437.79Z" fill="#ffc930" opacity="1" stroke-width="4" stroke="none"></path><path d="M1056.49 471.94C1061.05 471.94 1064.74 468.25 1064.74 463.69 1064.74 459.14 1061.05 455.44 1056.49 455.44 1051.93 455.44 1048.24 459.14 1048.24 463.69 1048.24 468.25 1051.93 471.94 1056.49 471.94Z" fill="#ffc930" opacity="1" stroke-width="4" stroke="none"></path><path d="M942.19 543.7C946.75 543.7 950.44 540.01 950.44 535.45 950.44 530.89 946.75 527.2 942.19 527.2 937.64 527.2 933.94 530.89 933.94 535.45 933.94 540.01 937.64 543.7 942.19 543.7Z" fill="#ffc930" opacity="1" stroke-width="4" stroke="none"></path></g><g><path d="M326.25 608.07H264.82V762.34H326.25V608.07Z" fill="#ffffff" opacity="1" stroke-width="4" stroke="none"></path><path d="M264.82 608.07H276.97L299.36 762.34H264.82V608.07Z" fill="#222222" opacity="0.3" stroke-width="4" stroke="none"></path><path d="M593.82 638.11H550.14V762.34H593.82V638.11Z" fill="#cecece" opacity="1" stroke-width="4" stroke="none"></path><path d="M550.14 638.11H555.05L571.98 762.34H550.14V638.11Z" fill="#222222" opacity="0.3" stroke-width="4" stroke="none"></path><path d="M516.01 608.07H475.06V762.34H516.01V608.07Z" fill="#cecece" opacity="1" stroke-width="4" stroke="none"></path><path d="M659.35 608.07H593.82V762.34H659.35V608.07Z" fill="#ffffff" opacity="1" stroke-width="4" stroke="none"></path><path d="M694.16 608.07H659.35V762.34H694.16V608.07Z" fill="#cecece" opacity="1" stroke-width="4" stroke="none"></path><path d="M659.35 608.07H664.95L679.56 762.34H659.35V608.07Z" fill="#020202" opacity="0.3" stroke-width="4" stroke="none"></path><path d="M728.98 608.07H694.16V762.34H728.98V608.07Z" fill="#ffffff" opacity="1" stroke-width="4" stroke="none"></path><path d="M437.38 607.72L360.24 741.31 398.07 763.16 475.21 629.56 437.38 607.72Z" fill="#cecece" opacity="1" stroke-width="4" stroke="none"></path><path d="M468.23 625.27L475.19 629.37 398.06 762.88 360.24 741.04 368.44 726.98 468.23 625.27Z" fill="#222222" opacity="0.3" stroke-width="4" stroke="none"></path><path d="M360.38 584.87H326.25V762.34H360.38V584.87Z" fill="#cecece" opacity="1" stroke-width="4" stroke="none"></path><path d="M550.14 584.87H516.01V762.34H550.14V584.87Z" fill="#ffffff" opacity="1" stroke-width="4" stroke="none"></path><path d="M308.5 857.63H264.82V1011.89H308.5V857.63Z" fill="#ffffff" opacity="1" stroke-width="4" stroke="none"></path><path d="M264.82 857.63H279.56L303.73 1011.89H264.82V857.63Z" fill="#222222" opacity="0.3" stroke-width="4" stroke="none"></path><path d="M352.19 857.63H308.5V1011.89H352.19V857.63Z" fill="#cecece" opacity="1" stroke-width="4" stroke="none"></path><path d="M386.32 828.96H352.19V1011.89H386.32V828.96Z" fill="#ffffff" opacity="1" stroke-width="4" stroke="none"></path><path d="M468.23 828.96H386.32V1011.89H468.23V828.96Z" fill="#cecece" opacity="1" stroke-width="4" stroke="none"></path><path d="M386.32 828.96H393.83L413.9 1011.89H386.32V828.96Z" fill="#020202" opacity="0.3" stroke-width="4" stroke="none"></path><path d="M509.18 883.56H468.23V1011.89H509.18V883.56Z" fill="#ffffff" opacity="1" stroke-width="4" stroke="none"></path><path d="M468.23 883.56H478.33L496.9 1011.89H468.23V883.56Z" fill="#1a1a1a" opacity="0.3" stroke-width="4" stroke="none"></path><path d="M619.76 857.63H578.81V1011.89H619.76V857.63Z" fill="#ffffff" opacity="1" stroke-width="4" stroke="none"></path><path d="M660.72 857.63H619.76V1011.89H660.72V857.63Z" fill="#cecece" opacity="1" stroke-width="4" stroke="none"></path><path d="M578.81 857.63H509.18V1011.89H578.81V857.63Z" fill="#ffffff" opacity="1" stroke-width="4" stroke="none"></path><path d="M728.98 857.63H660.72V1011.89H728.98V857.63Z" fill="#cecece" opacity="1" stroke-width="4" stroke="none"></path><path d="M264.82 762.34H728.98" stroke="#222222" stroke-width="4" stroke-linecap="round" stroke-linejoin="round" opacity="1" fill="none"></path><path d="M264.82 557.56V1009.84H728.98V557.56" stroke="#222222" stroke-width="4" stroke-linecap="round" stroke-linejoin="round" opacity="1" fill="none"></path><path d="M660.72 857.63H666.59L690.89 1011.89H660.72V857.63Z" fill="#020202" opacity="0.3" stroke-width="4" stroke="none"></path></g><g><path d="M579.07 696.66L577.09 684.64C582.52 686.29 588.12 687.28 593.72 687.11 609.03 687.11 622.03 681.85 628.29 673.12 638.66 658.97 638.99 642.5 629.27 612.38 630.26 611.06 637.67 601.68 636.19 595.59 635.36 592.13 630.26 589.66 621.21 588.35L620.39 585.38C615.61 571.39 611.66 559.21 606.56 549 599.15 533.86 580.71 542.26 563.43 535.67 552.24 531.23 553.88 530.73 541.87 530.73 518.82 530.73 503.84 534.02 488.53 547.52 464.33 569.42 460.38 594.77 464.66 617.15L464.83 618.14C467.13 631.97 474.04 671.31 479.31 696.99V697.81L574.29 701.44 579.07 696.66Z" fill="#c65a42" opacity="1" stroke-width="4" stroke="none"></path><path d="M579.07 696.66L577.09 684.64 576.1 684.15C576.1 684.15 572.81 682.5 567.22 679.71 565.24 678.72 561.95 677.9 560.63 679.54 559.64 680.53 559.64 683 559.81 684.32L561.78 697.81 579.07 696.66Z" fill="#222020" opacity="0.3" stroke-width="4" stroke="none"></path><path d="M851.67 816.5C858.91 801.68 863.52 790.98 864.01 789.5 865.99 789.01 884.09 784.73 899.4 761.85 900.23 763.49 903.52 768.76 909.28 768.76 913.39 768.76 917.84 766.29 922.61 761.52 934.3 749.83 935.95 741.44 935.12 736.5 934.63 733.04 932.49 729.91 929.36 728.27 931.5 722.83 931.67 717.9 929.86 713.95 928.37 710.82 925.91 708.18 922.78 706.87 928.37 695.18 919.98 687.28 918 685.63 920.97 683.99 923.93 682.5 926.56 681.02 943.02 672.3 953.89 666.54 953.89 659.13 953.89 654.19 949.44 651.56 941.21 651.56 929.69 651.56 911.25 656.66 891.83 665.22 871.25 674.11 852.16 685.8 834.87 700.12 819.73 712.96 800.8 731.23 778.41 754.77L778.08 755.43 850.51 816.99 851.67 816.5Z" fill="#c65a42" opacity="1" stroke-width="4" stroke="none"></path><path d="M450.51 985.23L613.14 984.9 613.97 981.93 632.9 893.54C637.83 897.49 685.9 934.53 724.58 934.53 725.74 934.53 726.89 934.53 728.04 934.36 786.97 930.9 830.76 858.97 851.67 816.5L778.41 754.77 778.25 754.93C751.75 782.75 729.19 808.6 726.56 811.73 663.02 728.43 611.17 716.09 585.98 716.09 585.32 716.09 584.66 716.09 584.17 716.09H583.18C583.02 716.09 582.85 716.09 582.69 716.09L579.07 696.66H479.15V697.48C479.48 699.46 479.81 701.27 480.14 702.92 480.3 704.07 480.63 705.06 480.79 706.21 481.12 707.53 481.45 708.84 481.62 709.83V710.16C477.83 710.65 444.58 716.25 423.18 739.95 413.63 750.33 392.4 773.04 379.23 806.79 372.48 823.74 368.03 840.37 363.26 856.5 362.6 858.48 364.41 865.55 363.92 867.36 363.59 868.52 366.22 869.67 365.89 870.82 361.61 885.97 358.49 900.12 356.51 912.63 351.9 942.59 354.37 968.11 363.92 988.35 364.58 989.84 365.4 991.32 366.39 992.8 385.65 1022.43 429.6 1020.45 447.54 990 448.53 988.35 449.52 986.71 450.51 985.23Z" fill="#ffa0dc" opacity="1" stroke-width="4" stroke="none"></path><path d="M450.51 985.23L433.06 894.03 430.26 894.2C417.75 894.2 414.95 920.2 411.99 947.86 411 957.08 410.01 966.63 408.53 975.19 403.59 1004.32 392.4 1011.89 392.23 1012.06 392.23 1012.06 429.44 1024.57 450.51 985.23Z" fill="#595457" opacity="0.3" stroke-width="4" stroke="none"></path><path d="M239.47 752.63C254.29 752.63 267.95 758.23 278.16 767.44 279.97 751.81 285.4 737.32 294.29 725.63 309.27 705.88 333.47 694.69 364.08 693.2 359.31 679.87 358.98 665.22 363.1 651.72 367.71 636.41 377.58 624.89 390.75 619.13 398.82 615.84 407.54 614.03 416.27 614.19 426.64 614.36 436.84 616.17 446.55 619.62V619.46C446.23 598.72 445.07 550.32 475.86 527.93 492.32 515.59 513.72 508.67 536.1 508.67 548.29 508.67 560.47 510.81 571.82 515.26 586.48 520.86 598.49 532.87 606.56 549L605.73 549.83C598.49 557.4 588.78 560.86 578.24 560.86 574.46 560.86 570.51 560.36 566.72 559.37 575.12 575.67 571.33 600.69 558.82 611.39L558.33 611.89 557.83 611.39C557.67 611.39 539.73 599.05 524.58 599.05 515.53 599.05 509.44 603.16 506.14 611.39 503.68 617.15 503.68 623.74 506.31 629.34 513.55 646.62 538.08 659.29 538.08 659.29 538.08 659.29 543.35 719.71 518.33 752.14 503.68 771.4 482.44 781.11 455.11 781.11 440.46 781.11 423.67 778.14 405.07 772.05 402.6 777.16 383.84 812.55 366.22 869.83L365.89 870.82C365.89 870.82 307.95 854.2 292.97 832.8 284.25 853.7 263.51 868.52 239.47 868.52 207.54 868.52 181.53 842.51 181.53 810.57 181.53 778.64 207.54 752.63 239.47 752.63Z" fill="#231f20" opacity="1" stroke-width="4" stroke="none"></path><path d="M412.32 947.2L440.96 936.5" stroke="#595457" stroke-width="4" stroke-linecap="round" stroke-linejoin="round" opacity="1" fill="none"></path><path d="M632.9 893.54L597.34 863.25" stroke="#595457" stroke-width="4" stroke-linecap="round" stroke-linejoin="round" opacity="1" fill="none"></path><path d="M726.56 811.73L733.31 848.43" stroke="#595457" stroke-width="4" stroke-linecap="round" stroke-linejoin="round" opacity="1" fill="none"></path><path d="M577.09 684.64C565.9 679.38 557.17 673.95 557.17 673.95" stroke="#222020" stroke-width="4" stroke-linecap="round" stroke-linejoin="round" opacity="1" fill="none"></path><path d="M619.73 629.5C613.14 629.66 606.56 627.2 601.62 622.92" stroke="#222020" stroke-width="4" stroke-linecap="round" stroke-linejoin="round" opacity="1" fill="none"></path><path d="M548.29 633.62L533.47 626.21" stroke="#222020" stroke-width="4" stroke-linecap="round" stroke-linejoin="round" opacity="1" fill="none"></path><path d="M600.8 593.29C598.52 593.29 596.68 591.44 596.68 589.17 596.68 586.9 598.52 585.05 600.8 585.05 603.07 585.05 604.91 586.9 604.91 589.17 604.91 591.44 603.07 593.29 600.8 593.29Z" fill="#231f20" opacity="1" stroke-width="4" stroke="none"></path><path d="M929.36 728.27C918.66 728.43 907.8 730.74 897.92 734.85" stroke="#222020" stroke-width="4" stroke-linecap="round" stroke-linejoin="round" opacity="1" fill="none"></path><path d="M922.78 706.87C903.02 708.51 891.34 713.45 891.34 713.45" stroke="#222020" stroke-width="4" stroke-linecap="round" stroke-linejoin="round" opacity="1" fill="none"></path><path d="M918 685.63C903.19 683.99 884.75 692.05 884.75 692.05" stroke="#222020" stroke-width="4" stroke-linecap="round" stroke-linejoin="round" opacity="1" fill="none"></path><path d="M778.41 754.77L851.67 816.5" stroke="#595457" stroke-width="4" stroke-linecap="round" stroke-linejoin="round" opacity="1" fill="none"></path><path d="M632.9 893.54L609.03 873.29C607.71 872.14 600.14 870.99 597.67 874.77 596.19 876.91 595.86 879.55 596.68 881.85L620.55 951.81 632.9 893.54Z" fill="#595457" opacity="0.3" stroke-width="4" stroke="none"></path><path d="M613.14 984.9L450.51 985.23 427.13 863.25" stroke="#595457" stroke-width="4" stroke-linecap="round" stroke-linejoin="round" opacity="1" fill="none"></path></g><g><path d="M1191.31 917.76C1217.54 917.76 1244.63 896.41 1251.71 870.18L1301.17 685.58C1304.67 672.51 1302.77 660.3 1295.81 651.23 1289.18 642.59 1278.68 637.84 1266.24 637.84H969.92C943.67 637.84 916.58 659.25 909.52 685.56L860.06 870.01C856.62 883.12 858.58 895.35 865.59 904.43 872.22 913.03 882.66 917.76 894.99 917.76H1191.31Z" fill="#9e76dd" opacity="1" stroke-width="4" stroke="none"></path><path d="M1030.42 917.76C1030.52 917.13 1030.58 916.5 1030.61 915.87 1030.64 915.25 1030.68 914.63 1030.76 914.04 1032.66 894.98 1045.06 879.48 1058.39 879.48 1060.89 879.51 1063.36 880.07 1065.63 881.12 1067.9 882.18 1069.92 883.71 1071.55 885.61 1077.42 892.05 1080.3 902.67 1079.25 914.03L1078.81 917.71 1111.97 917.76 1119.37 841.17 1004.51 841.13 996.96 917.76H1030.42Z" fill="#000000" opacity="0.3" stroke-width="4" stroke="none"></path><path d="M1156.13 976.64L1119.96 841.16 1004.95 841.13 1041.28 976.64H1156.13ZM1072.96 879.48C1086.23 879.48 1101.2 894.99 1106.34 914.04 1109.42 925.5 1108.31 936.19 1103.37 942.64 1101.99 944.52 1100.17 946.03 1098.09 947.07 1096 948.1 1093.69 948.62 1091.36 948.59 1078.01 948.59 1062.97 933.08 1057.84 914.02 1054.83 902.53 1056 891.83 1060.97 885.39 1062.36 883.53 1064.17 882.02 1066.25 880.99 1068.34 879.96 1070.64 879.45 1072.96 879.48Z" fill="#3c2c5b" opacity="1" stroke-width="4" stroke="none"></path><path d="M1131.4 708.39L1124.19 735.47" stroke="#000000" stroke-width="4" stroke-linecap="round" stroke-linejoin="round" opacity="1" fill="none"></path><path d="M1097.55 708.39L1090.33 735.47" stroke="#000000" stroke-width="4" stroke-linecap="round" stroke-linejoin="round" opacity="1" fill="none"></path><path d="M1063.69 708.39L1056.48 735.47" stroke="#000000" stroke-width="4" stroke-linecap="round" stroke-linejoin="round" opacity="1" fill="none"></path><path d="M989.05 976.64C989.06 973.92 988.54 971.24 987.51 968.73 986.47 966.22 984.96 963.94 983.04 962.01 981.13 960.09 978.85 958.57 976.35 957.53 973.84 956.48 971.16 955.95 968.44 955.95H722.61C717.14 955.95 711.89 958.13 708.02 962 704.15 965.87 701.97 971.12 701.96 976.6V976.64H989.05Z" fill="#9e76dd" opacity="1" stroke-width="4" stroke="none"></path><path d="M799.16 976.64C799.17 973.92 798.64 971.24 797.61 968.73 796.58 966.22 795.06 963.94 793.15 962.01 791.23 960.09 788.96 958.57 786.45 957.53 783.95 956.48 781.26 955.95 778.55 955.95H722.61C717.14 955.95 711.89 958.13 708.02 962 704.15 965.87 701.97 971.12 701.96 976.6V976.64H799.16Z" fill="#3c2c5b" opacity="1" stroke-width="4" stroke="none"></path></g><g><path d="M1212.4 896.21H1296.55C1297.5 896.21 1297.74 897.52 1296.79 897.88 1288.82 900.38 1272.87 905.97 1255.97 914.9 1239.42 923.59 1221.92 935.49 1210.14 950.72H1155.63C1155.63 950.72 1157.77 941.8 1165.63 930.61 1173.48 919.3 1187.29 905.85 1210.5 896.69 1211.09 896.33 1211.81 896.21 1212.4 896.21Z" fill="#37b9f6" opacity="1" stroke-width="4" stroke="none"></path><path d="M1255.97 914.78C1239.54 923.47 1222.04 935.25 1210.26 950.61H1155.75C1155.75 950.61 1157.77 941.68 1165.63 930.49L1255.97 914.78Z" fill="#092d3e" opacity="0.3" stroke-width="4" stroke="none"></path><path d="M1328.81 977.27H1202.29V949.77C1202.29 949.77 1229.78 930.97 1265.49 930.97 1295.6 930.97 1320 944.42 1326.78 948.58 1327.97 949.3 1328.69 950.61 1328.69 952.03L1328.81 977.27Z" fill="#37b9f6" opacity="1" stroke-width="4" stroke="none"></path><path d="M1202.88 977.27H1075.88V950.01C1075.88 949.77 1076 949.65 1076.12 949.53 1078.86 947.75 1105.28 930.85 1139.09 930.85 1174.79 930.85 1202.88 949.65 1202.88 949.65V977.27Z" fill="#37b9f6" opacity="1" stroke-width="4" stroke="none"></path><path d="M1076.48 949.77C1076.48 949.77 1103.97 930.97 1139.68 930.97 1175.39 930.97 1202.88 949.77 1202.88 949.77V977.27" stroke="#000000" stroke-width="4" stroke-linecap="round" stroke-linejoin="round" opacity="1" fill="none"></path></g><g><path d="M1455.6 975.2H143.74L143.74 1021.73H1455.6L1455.6 975.2Z" fill="#cecece" opacity="1" stroke-width="4" stroke="none"></path></g></svg>